<?xml version="1.0" encoding="utf-8"?>
<!-- Svg Vector Icons : http://www.onlinewebfonts.com/icon -->
<!DOCTYPE svg PUBLIC "-//W3C//DTD SVG 1.1//EN" "http://www.w3.org/Graphics/SVG/1.1/DTD/svg11.dtd">
<svg version="1.1" xmlns="http://www.w3.org/2000/svg" xmlns:xlink="http://www.w3.org/1999/xlink" x="0px" y="0px" viewBox="0 0 1000 1000" enable-background="new 0 0 1000 1000" xml:space="preserve">
<metadata> Svg Vector Icons : http://www.onlinewebfonts.com/icon </metadata>
<g><g transform="translate(0.000000,511.000000) scale(0.100000,-0.100000)"><path d="M4140.2,3931.3c-111.1-109.1-614.7-603.2-1116.4-1099.2c-852.1-840.7-915.3-907.7-915.3-967c0-126.4,113-203,216.4-147.4c82.3,42.1,2215.6,2162,2227.1,2209.8c24.9,99.6-59.4,199.2-168.5,199.2C4360.4,4126.6,4264.7,4050,4140.2,3931.3z"/><path d="M5522.8,4103.6c-51.7-24.9-90-114.9-74.7-176.2c13.4-51.7,2173.5-2194.5,2238.6-2219.4c103.4-38.3,204.9,38.3,204.9,157c0,59.4-63.2,126.4-896.2,947.9c-492.1,484.5-993.9,980.5-1116.4,1099.2C5649.2,4132.3,5618.5,4149.6,5522.8,4103.6z"/><path d="M404.2,1271.4c-105.3-47.9-201.1-136-254.7-237.4c-38.3-70.9-42.1-111.1-47.9-482.6c-7.7-496,7.7-578.3,145.5-716.2c91.9-90,231.7-151.3,348.5-151.3c49.8,0,59.4-24.9,612.8-1574.1c308.3-867.5,578.3-1612.4,599.4-1656.4c51.7-116.8,176.2-231.7,319.8-300.6l124.5-59.4h2700.1h2700.1l107.2,44c114.9,46,239.4,141.7,308.3,237.5c23,34.5,323.6,789,666.4,1679.4l624.3,1616.2l116.8,24.9c149.4,30.6,212.6,63.2,298.7,158.9c114.9,128.3,132.1,224,124.5,697c-5.7,371.5-9.6,411.7-47.9,482.6c-53.6,101.5-149.4,189.6-254.7,237.4c-86.2,38.3-101.5,40.2-4595.9,40.2C505.6,1311.6,490.3,1309.7,404.2,1271.4z M9528.8,938.2c47.9-46,47.9-47.9,47.9-440.4c0-392.6,0-394.5-47.9-440.4l-46-47.9H5000H517.1l-46,47.9c-47.9,46-47.9,47.9-47.9,440.4c0,392.6,0,394.5,47.9,440.4l46,47.9H5000h4482.9L9528.8,938.2z M8994.6-386.9c-15.3-40.2-183.8-476.8-375.3-972.8c-189.6-496-448.1-1160.4-570.7-1480.2c-233.6-608.9-266.2-668.3-400.2-723.8c-51.7-23-526.6-26.8-2700.1-26.8H2309.5l-74.7,44c-42.1,23-90,63.2-111.1,90c-28.7,40.2-1083.8,2956.7-1118.3,3094.5l-11.5,46h4011.8h4013.7L8994.6-386.9z"/><path d="M2836.1-980.6c-15.3-5.7-47.9-28.7-70.9-49.8l-44-38.3v-884.7v-884.7l44-40.2c61.3-57.4,166.6-55.5,220.2,1.9c42.1,44,42.1,47.9,42.1,928.7c0,859.8-1.9,886.6-38.3,923c-21.1,21.1-46,38.3-55.5,38.3c-9.6,0-28.7,3.8-44,7.7C2876.4-972.9,2851.5-974.8,2836.1-980.6z"/><path d="M4126.8-986.3c-103.4-42.1-103.4-34.5-103.4-972.8v-867.5l47.9-46c49.8-49.8,137.9-63.2,201.1-28.7c70.9,38.3,76.6,114.9,76.6,961.3c0,905.8,0,911.5-116.8,951.7c-34.5,11.5-61.3,21.1-63.2,19.2C4167-969.1,4147.9-976.7,4126.8-986.3z"/><path d="M5750.7-995.9c-34.5-15.3-70.8-49.8-80.4-76.6c-26.8-72.8-24.9-1669.8,1.9-1750.3c38.3-107.2,174.3-134.1,256.6-49.8l47.9,46v871.3v871.3l-42.1,47.9C5877.1-974.8,5827.3-963.3,5750.7-995.9z"/><path d="M7056.7-994c-32.6-15.3-65.1-40.2-72.8-59.4c-5.7-17.2-11.5-425.1-11.5-907.7v-877.1l44-40.2c65.1-61.3,170.4-57.4,222.1,7.6c40.2,49.8,40.2,70.9,40.2,926.8v875.1l-42.1,38.3C7175.4-974.8,7125.6-965.3,7056.7-994z"/></g></g>
</svg>